<svg xmlns="http://www.w3.org/2000/svg" viewBox="0 0 1500 1000" width="1500" height="1000" preserveAspectRatio="xMidYMid slice" role="img" aria-label="La costa calabrese al crepuscolo">
  <title>La costa calabrese al crepuscolo</title>
  <defs>
    <linearGradient id="sky8" x1="0" y1="0" x2="0" y2="1">
      <stop offset="0%" stop-color="#3F3E3A"/>
      <stop offset="52%" stop-color="#8B7A63"/>
      <stop offset="100%" stop-color="#D2AE84"/>
    </linearGradient>
    <radialGradient id="gl8" cx="0.62" cy="0.7" r="0.55">
      <stop offset="0%" stop-color="#FBEBC8" stop-opacity="0.8"/>
      <stop offset="100%" stop-color="#FBEBC8" stop-opacity="0"/>
    </radialGradient>
    <filter id="sf8"><feGaussianBlur stdDeviation="2.4"/></filter>
    <filter id="gr8" x="0" y="0" width="100%" height="100%">
      <feTurbulence type="fractalNoise" baseFrequency="0.9" numOctaves="2" seed="8" result="g"/>
      <feColorMatrix in="g" type="saturate" values="0"/>
    </filter>
    <filter id="wa8" x="-12%" y="-12%" width="124%" height="124%">
      <feTurbulence type="fractalNoise" baseFrequency="0.03" numOctaves="3" seed="24" result="t"/>
      <feDisplacementMap in="SourceGraphic" in2="t" scale="10" xChannelSelector="R" yChannelSelector="G"/>
    </filter>
  </defs>
  <rect width="1500" height="1000" fill="url(#sky8)"/>
  <ellipse cx="980" cy="560" rx="720" ry="330" fill="url(#gl8)"/>
  <circle cx="986" cy="548" r="52" fill="#FDF2D6" opacity="0.88"/>
  <rect y="572" width="1500" height="428" fill="#8C8A72"/>
  <g opacity="0.4" fill="#F3E2BC">
    <rect x="900" y="596" width="170" height="5"/><rect x="880" y="650" width="210" height="5"/>
    <rect x="850" y="716" width="270" height="6"/><rect x="810" y="796" width="340" height="6"/>
    <rect x="760" y="890" width="440" height="7"/>
  </g>
  <path d="M0 566 L150 528 L300 560 L430 534 L560 566 L560 596 L0 596 Z" fill="#6E6754" filter="url(#sf8)"/>
  <path d="M1180 562 L1320 530 L1500 558 L1500 596 L1180 596 Z" fill="#6E6754" opacity="0.75" filter="url(#sf8)"/>
  <!-- promontorio in primo piano -->
  <path d="M0 700 C 180 656, 340 690, 470 740 C 560 776, 620 850, 640 1000 L0 1000 Z" fill="#3A3A2C"/>
  <g fill="#2B2C21">
    <g transform="translate(180,690)"><path d="M-7 0 v-64 h14 v64 z"/><ellipse cy="-84" rx="70" ry="42"/><ellipse cx="-36" cy="-68" rx="42" ry="26"/></g>
    <g transform="translate(330,712) scale(0.82)"><path d="M-7 0 v-64 h14 v64 z"/><ellipse cy="-84" rx="66" ry="40"/></g>
    <path d="M460 780 c12 0 18 -66 0 -114 c-18 48 -12 114 0 114 z"/>
  </g>
  <!-- barca -->
  <g opacity="0.8" fill="#4A4739" transform="translate(1120,700)">
    <path d="M-34 0 q 34 18 68 0 l -10 12 q -24 10 -48 0 z"/>
    <rect x="-2" y="-44" width="4" height="44"/>
    <path d="M2 -42 l 26 38 h -26 z" opacity="0.85"/>
  </g>
  <rect width="1500" height="1000" filter="url(#gr8)" opacity="0.13"/>
</svg>
